<svg id="Layer_1" data-name="Layer 1" xmlns="http://www.w3.org/2000/svg" xmlns:xlink="http://www.w3.org/1999/xlink" viewBox="0 0 1080 1080"><defs><style>.cls-1{fill:url(#linear-gradient);}.cls-2{fill:url(#linear-gradient-2);}.cls-3{fill:url(#linear-gradient-3);}</style><linearGradient id="linear-gradient" x1="480.05" y1="375.02" x2="477.07" y2="699.78" gradientUnits="userSpaceOnUse"><stop offset="0" stop-color="#e5c27a"/><stop offset="0.51" stop-color="#c9a86a"/><stop offset="1" stop-color="#a67c2e"/></linearGradient><linearGradient id="linear-gradient-2" x1="570.66" y1="375.85" x2="567.68" y2="700.62" xlink:href="#linear-gradient"/><linearGradient id="linear-gradient-3" x1="583.64" y1="375.97" x2="580.66" y2="700.74" xlink:href="#linear-gradient"/></defs><path class="cls-1" d="M425.08,698.74H360a2.25,2.25,0,0,1-1.81-3.57l130.37-178.6a2.24,2.24,0,0,0-1.81-3.56H361a2.24,2.24,0,0,1-1.81-3.56l36.4-49.86a2.23,2.23,0,0,1,1.81-.92H597.05a2.25,2.25,0,0,1,1.81,3.57l-172,235.58A2.24,2.24,0,0,1,425.08,698.74Z"/><path class="cls-2" d="M722.28,467.16v5.22a85.58,85.58,0,0,1-7.36,34.83c-.87,2-1.82,3.91-2.84,5.8a85.9,85.9,0,0,1-75.7,45.27H563.84a2.25,2.25,0,0,1-1.81-3.57l33.79-46.28a2.24,2.24,0,0,1,1.81-.92h38.75a37,37,0,0,0,4.62-.3,35.18,35.18,0,0,0,30.51-34.83v-5.22a35,35,0,0,0-4.24-16.72A35.2,35.2,0,0,0,641,432.33a37,37,0,0,0-4.62-.3l-216.47.3a2.24,2.24,0,0,1-1.81-3.56l34-46.59a2.25,2.25,0,0,1,1.81-.92H636.38a86.28,86.28,0,0,1,19.89,2.32A84.8,84.8,0,0,1,680,393.14a85.77,85.77,0,0,1,41.88,65.53C722.13,461.46,722.28,464.3,722.28,467.16Z"/><path class="cls-3" d="M700.08,698.74H461.31a2.24,2.24,0,0,1-1.81-3.57l66.63-91.28a2.25,2.25,0,0,1,1.81-.92h23.59a2.24,2.24,0,0,1,1.81,3.56L525.91,644.1a2.24,2.24,0,0,0,1.81,3.56H666.07a2.23,2.23,0,0,1,1.81.92l34,46.59A2.24,2.24,0,0,1,700.08,698.74Z"/></svg>