<svg xmlns="http://www.w3.org/2000/svg" width="281" height="281" viewBox="0 0 281 281" fill="none"><path d="M56.9827 255.95H9.62271C9.32252 255.949 9.02853 255.864 8.77316 255.707C8.51779 255.549 8.31096 255.323 8.17547 255.056C8.03998 254.788 7.9811 254.488 8.00531 254.188C8.02953 253.889 8.1359 253.603 8.3127 253.36L103.133 123.49C103.31 123.247 103.416 122.961 103.44 122.661C103.464 122.362 103.405 122.062 103.27 121.794C103.134 121.526 102.928 121.301 102.672 121.143C102.417 120.985 102.123 120.901 101.823 120.9H10.3827C10.0825 120.899 9.78853 120.814 9.53316 120.657C9.27779 120.499 9.07095 120.273 8.93547 120.006C8.79998 119.738 8.7411 119.438 8.76531 119.138C8.78953 118.839 8.8959 118.553 9.0727 118.31L35.5727 81.9999C35.7247 81.7932 35.9237 81.6256 36.1532 81.5109C36.3827 81.3961 36.6361 81.3375 36.8927 81.3399H182.093C182.394 81.3394 182.689 81.4223 182.946 81.5794C183.203 81.7364 183.411 81.9615 183.548 82.2298C183.684 82.498 183.744 82.7988 183.72 83.0989C183.696 83.399 183.59 83.6866 183.413 83.9299L58.3027 255.28C58.1506 255.487 57.9519 255.656 57.7226 255.772C57.4933 255.889 57.2399 255.95 56.9827 255.95Z" fill="url(#paint0_linear_809_1743)"></path><path d="M273.153 87.49V91.29C273.163 100.015 271.341 108.645 267.803 116.62C267.173 118.06 266.483 119.46 265.733 120.84C260.391 130.794 252.449 139.113 242.753 144.91C233.057 150.707 221.97 153.766 210.673 153.76H157.913C157.613 153.762 157.319 153.681 157.063 153.526C156.806 153.371 156.598 153.149 156.459 152.884C156.321 152.618 156.258 152.32 156.278 152.021C156.298 151.722 156.4 151.435 156.573 151.19L181.173 117.49C181.325 117.283 181.524 117.114 181.753 116.998C181.982 116.881 182.236 116.82 182.493 116.82H210.673C211.8 116.817 212.925 116.744 214.043 116.6C220.178 115.775 225.807 112.754 229.885 108.096C233.963 103.439 236.215 97.4607 236.223 91.27V87.49C236.225 85.4105 235.973 83.3385 235.473 81.32C234.958 79.228 234.175 77.2113 233.143 75.32C230.323 70.1368 225.807 66.0802 220.353 63.83C217.281 62.5714 213.992 61.926 210.673 61.93L53.2228 62.14C52.9217 62.1405 52.6265 62.0576 52.3696 61.9006C52.1128 61.7435 51.9045 61.5184 51.7678 61.2502C51.6311 60.9819 51.5714 60.6811 51.5952 60.381C51.619 60.0809 51.7255 59.7933 51.9028 59.55L76.6428 25.67C76.7922 25.4623 76.9889 25.2931 77.2168 25.1766C77.4446 25.0601 77.6969 24.9995 77.9528 25H210.673C215.545 24.9986 220.402 25.5658 225.143 26.69C231.213 28.1391 237.029 30.4992 242.393 33.69C253.621 40.3199 262.503 50.2856 267.803 62.2C270.485 68.2776 272.173 74.7467 272.803 81.36C273.053 83.36 273.153 85.43 273.153 87.49Z" fill="url(#paint1_linear_809_1743)"></path><path d="M257.013 255.95H83.3327C83.0325 255.949 82.7385 255.864 82.4831 255.707C82.2278 255.549 82.0209 255.324 81.8854 255.056C81.7499 254.788 81.6911 254.488 81.7153 254.189C81.7395 253.889 81.8459 253.603 82.0227 253.36L130.483 186.96C130.635 186.753 130.833 186.584 131.063 186.468C131.292 186.351 131.546 186.29 131.803 186.29H148.963C149.263 186.291 149.557 186.376 149.812 186.533C150.068 186.691 150.274 186.916 150.41 187.184C150.545 187.452 150.604 187.752 150.58 188.052C150.556 188.351 150.449 188.637 150.273 188.88L130.323 216.2C130.146 216.444 130.041 216.732 130.017 217.033C129.994 217.333 130.054 217.634 130.19 217.902C130.326 218.171 130.534 218.397 130.79 218.555C131.047 218.714 131.341 218.798 131.643 218.8H232.273C232.528 218.804 232.78 218.869 233.006 218.989C233.232 219.109 233.426 219.281 233.573 219.49L258.303 253.38C258.473 253.621 258.575 253.904 258.597 254.199C258.619 254.493 258.561 254.788 258.428 255.052C258.296 255.316 258.094 255.539 257.845 255.697C257.595 255.855 257.308 255.943 257.013 255.95Z" fill="url(#paint2_linear_809_1743)"></path><defs>
<linearGradient id="paint0_linear_809_1743" x1="96.9627" y1="20.4899" x2="94.8027" y2="256.71" gradientUnits="userSpaceOnUse">
<stop stop-color="#E5C27A"></stop>
<stop offset="0.51" stop-color="#C9A86A"></stop>
<stop offset="1" stop-color="#A67C2E"></stop>
</linearGradient>
<linearGradient id="paint1_linear_809_1743" x1="162.873" y1="21.1" x2="160.713" y2="257.32" gradientUnits="userSpaceOnUse">
<stop stop-color="#E5C27A"></stop>
<stop offset="0.51" stop-color="#C9A86A"></stop>
<stop offset="1" stop-color="#A67C2E"></stop>
</linearGradient>
<linearGradient id="paint2_linear_809_1743" x1="172.313" y1="21.18" x2="170.143" y2="257.4" gradientUnits="userSpaceOnUse">
<stop stop-color="#E5C27A"></stop>
<stop offset="0.51" stop-color="#C9A86A"></stop>
<stop offset="1" stop-color="#A67C2E"></stop>
</linearGradient>
</defs></svg>