<svg width="120" height="119" viewBox="0 0 120 119" fill="none" xmlns="http://www.w3.org/2000/svg">
<g clip-path="url(#clip0_1_1637)">
<path d="M0 14.6029C0 6.53794 6.53794 0 14.6029 0H105.397C113.462 0 120 6.53794 120 14.6029V104.397C120 112.462 113.462 119 105.397 119H14.6029C6.53794 119 0 112.462 0 104.397V14.6029Z" fill="#0B0D10"/>
<path fill-rule="evenodd" clip-rule="evenodd" d="M34.9926 20.4949C31.1476 20.4949 27.46 22.0223 24.7412 24.7412C22.0223 27.46 20.4949 31.1476 20.4949 34.9926V85.7349C20.4949 89.5799 22.0223 93.2675 24.7412 95.9863C27.46 98.7052 31.1476 100.233 34.9926 100.233H85.7349C89.5799 100.233 93.2675 98.7052 95.9863 95.9863C98.7052 93.2675 100.233 89.5799 100.233 85.7349V34.9926C100.233 31.1476 98.7052 27.46 95.9863 24.7412C93.2675 22.0223 89.5799 20.4949 85.7349 20.4949H34.9926ZM57.3192 34.9926C57.1416 34.9918 56.9658 35.0293 56.804 35.1027C56.6422 35.1761 56.4982 35.2836 56.3818 35.4179C56.2655 35.5521 56.1795 35.71 56.1299 35.8805C56.0802 36.0511 56.068 36.2304 56.0942 36.4062L56.1159 36.5657C56.496 39.2146 57.818 41.6379 59.8397 43.3913C61.8613 45.1447 64.4472 46.1108 67.1233 46.1124H74.6151V53.6042C74.6167 56.2803 75.5828 58.8662 77.3362 60.8878C79.0896 62.9095 81.5129 64.2315 84.1618 64.6116L84.3249 64.6333C84.5001 64.6589 84.6787 64.6463 84.8486 64.5966C85.0185 64.5469 85.1757 64.4612 85.3094 64.3453C85.4432 64.2294 85.5505 64.086 85.6239 63.925C85.6973 63.7639 85.7351 63.5889 85.7349 63.4119V38.7005C85.7349 36.6526 84.0749 34.9926 82.027 34.9926H57.3192ZM44.0211 49.012C44.137 48.8776 44.2806 48.7698 44.4419 48.696C44.6033 48.6221 44.7788 48.5841 44.9562 48.5843H68.4318C70.4796 48.5843 72.1396 50.2443 72.1396 52.2921V75.7676C72.1399 75.945 72.102 76.1203 72.0284 76.2817C71.9548 76.4431 71.8472 76.5866 71.713 76.7026C71.5788 76.8185 71.4211 76.9042 71.2508 76.9536C71.0805 77.0031 70.9015 77.0152 70.726 76.9891L70.5666 76.9673C67.9176 76.5873 65.4943 75.2652 63.7409 73.2436C61.9875 71.2219 61.0214 68.636 61.0198 65.9599V59.7041H54.764C52.0891 59.7007 49.505 58.7339 47.4848 56.9806C45.4647 55.2274 44.1437 52.8051 43.7638 50.1573L43.7421 49.9942C43.7171 49.8193 43.7301 49.641 43.7802 49.4716C43.8302 49.3021 43.9161 49.1454 44.032 49.012H44.0211ZM31.6654 62.6037C31.7813 62.4692 31.9248 62.3614 32.0862 62.2876C32.2476 62.2138 32.423 62.1757 32.6005 62.176H54.8401C56.8879 62.176 58.5479 63.836 58.5479 65.8838V88.1234C58.5488 88.301 58.5112 88.4768 58.4379 88.6386C58.3645 88.8004 58.2569 88.9444 58.1227 89.0608C57.9884 89.1771 57.8306 89.2631 57.66 89.3127C57.4894 89.3624 57.3101 89.3745 57.1344 89.3484L56.9749 89.3231C54.3259 88.943 51.9026 87.621 50.1492 85.5993C48.3958 83.5776 47.4298 80.9917 47.4281 78.3156V73.2958H42.4119C39.7358 73.2941 37.1499 72.3281 35.1282 70.5747C33.1065 68.8213 31.7845 66.398 31.4044 63.749L31.3791 63.5859C31.3542 63.4109 31.3672 63.2327 31.4172 63.0632C31.4672 62.8937 31.5531 62.737 31.669 62.6037H31.6654Z" fill="#CAC9CC"/>
<line opacity="0.1" x1="109.628" y1="-1.72653e-08" x2="109.628" y2="138.727" stroke="white" stroke-width="0.789968"/>
<line opacity="0.1" x1="29.8899" y1="-1.72653e-08" x2="29.8899" y2="138.727" stroke="white" stroke-width="0.789968"/>
<line opacity="0.1" x1="138.728" y1="109.628" x2="6.10352e-05" y2="109.628" stroke="white" stroke-width="0.789968"/>
<line opacity="0.1" x1="138.728" y1="29.8899" x2="6.10352e-05" y2="29.8899" stroke="white" stroke-width="0.789968"/>
</g>
<defs>
<clipPath id="clip0_1_1637">
<path d="M0 14.6029C0 6.53794 6.53794 0 14.6029 0H105.397C113.462 0 120 6.53794 120 14.6029V104.397C120 112.462 113.462 119 105.397 119H14.6029C6.53794 119 0 112.462 0 104.397V14.6029Z" fill="white"/>
</clipPath>
</defs>
</svg>
