<svg width="119" height="119" viewBox="0 0 119 119" fill="none" xmlns="http://www.w3.org/2000/svg">
<rect width="118.359" height="118.359" rx="12.4589" fill="#0C112D" fill-opacity="0.2"/>
<path opacity="0.3" d="M22.2468 36.606H21.2044L24.2193 28.3951H25.2457L28.2606 36.606H27.2182L24.7646 29.6941H24.7004L22.2468 36.606ZM22.6317 33.3986H26.8333V34.2806H22.6317V33.3986ZM30.4331 36.7503C30.0429 36.7503 29.6887 36.6768 29.3707 36.5298C29.0526 36.3801 28.8 36.1649 28.6129 35.8843C28.4258 35.601 28.3323 35.2589 28.3323 34.858C28.3323 34.5051 28.4018 34.2192 28.5408 34C28.6797 33.7781 28.8655 33.6044 29.098 33.4788C29.3306 33.3532 29.5872 33.2596 29.8678 33.1981C30.1511 33.134 30.4358 33.0832 30.7218 33.0458C31.0959 32.9977 31.3993 32.9616 31.6318 32.9376C31.8671 32.9108 32.0381 32.8667 32.145 32.8052C32.2546 32.7438 32.3094 32.6369 32.3094 32.4845V32.4524C32.3094 32.0569 32.2011 31.7495 31.9847 31.5303C31.7708 31.3112 31.4461 31.2016 31.0104 31.2016C30.5587 31.2016 30.2046 31.3005 29.948 31.4983C29.6914 31.696 29.511 31.9072 29.4067 32.1317L28.5087 31.811C28.6691 31.4368 28.8829 31.1454 29.1502 30.937C29.4201 30.7258 29.7141 30.5788 30.0322 30.496C30.3529 30.4104 30.6683 30.3677 30.9783 30.3677C31.1761 30.3677 31.4033 30.3917 31.6599 30.4398C31.9192 30.4853 32.1691 30.5802 32.4096 30.7245C32.6529 30.8688 32.8546 31.0866 33.015 31.378C33.1754 31.6693 33.2556 32.0595 33.2556 32.5487V36.606H32.3094V35.772H32.2613C32.1971 35.9057 32.0902 36.0487 31.9406 36.201C31.7909 36.3534 31.5918 36.483 31.3432 36.5899C31.0946 36.6968 30.7913 36.7503 30.4331 36.7503ZM30.5774 35.9003C30.9516 35.9003 31.267 35.8268 31.5236 35.6798C31.7829 35.5328 31.978 35.3431 32.1089 35.1105C32.2426 34.878 32.3094 34.6334 32.3094 34.3768V33.5109C32.2693 33.559 32.1811 33.6031 32.0448 33.6432C31.9112 33.6806 31.7561 33.714 31.5797 33.7434C31.406 33.7701 31.2363 33.7942 31.0706 33.8156C30.9075 33.8343 30.7752 33.8503 30.6736 33.8637C30.4278 33.8957 30.1979 33.9479 29.9841 34.02C29.7729 34.0895 29.6019 34.1951 29.4709 34.3368C29.3426 34.4757 29.2785 34.6655 29.2785 34.9061C29.2785 35.2348 29.4001 35.4834 29.6433 35.6518C29.8892 35.8175 30.2006 35.9003 30.5774 35.9003ZM36.7055 36.606V28.3951H39.5761C40.1481 28.3951 40.6198 28.494 40.9913 28.6918C41.3628 28.8869 41.6395 29.1502 41.8212 29.4816C42.003 29.8104 42.0939 30.1752 42.0939 30.5761C42.0939 30.9289 42.031 31.2203 41.9054 31.4501C41.7825 31.68 41.6194 31.8618 41.4163 31.9954C41.2158 32.129 40.998 32.2279 40.7628 32.2921V32.3723C41.014 32.3883 41.2666 32.4765 41.5205 32.6369C41.7745 32.7972 41.9869 33.0271 42.158 33.3264C42.3291 33.6258 42.4146 33.992 42.4146 34.425C42.4146 34.8366 42.321 35.2068 42.1339 35.5355C41.9469 35.8643 41.6515 36.1249 41.2479 36.3173C40.8443 36.5097 40.3191 36.606 39.6723 36.606H36.7055ZM37.6998 35.7239H39.6723C40.3218 35.7239 40.7829 35.5983 41.0555 35.3471C41.3308 35.0932 41.4684 34.7858 41.4684 34.425C41.4684 34.147 41.3976 33.8904 41.2559 33.6552C41.1143 33.4173 40.9125 33.2275 40.6505 33.0859C40.3886 32.9416 40.0786 32.8694 39.7204 32.8694H37.6998V35.7239ZM37.6998 32.0034H39.544C39.8434 32.0034 40.1133 31.9446 40.3539 31.827C40.5971 31.7094 40.7895 31.5437 40.9312 31.3299C41.0755 31.116 41.1477 30.8648 41.1477 30.5761C41.1477 30.2153 41.0221 29.9093 40.7708 29.658C40.5196 29.4041 40.1213 29.2772 39.5761 29.2772H37.6998V32.0034ZM43.258 36.606V28.3951H44.2042V31.4261H44.2844C44.3539 31.3192 44.4501 31.1829 44.5731 31.0172C44.6987 30.8488 44.8778 30.6991 45.1103 30.5681C45.3455 30.4345 45.6636 30.3677 46.0645 30.3677C46.583 30.3677 47.04 30.4973 47.4356 30.7566C47.8312 31.0158 48.1399 31.3833 48.3617 31.8591C48.5836 32.3348 48.6945 32.8961 48.6945 33.5429C48.6945 34.1951 48.5836 34.7604 48.3617 35.2388C48.1399 35.7146 47.8325 36.0834 47.4396 36.3454C47.0467 36.6046 46.5937 36.7343 46.0805 36.7343C45.6849 36.7343 45.3682 36.6688 45.1303 36.5378C44.8925 36.4042 44.7094 36.2531 44.5811 36.0848C44.4528 35.9137 44.3539 35.772 44.2844 35.6598H44.1721V36.606H43.258ZM44.1882 33.5269C44.1882 33.992 44.2563 34.4022 44.3926 34.7577C44.529 35.1105 44.7281 35.3872 44.99 35.5876C45.2519 35.7854 45.5727 35.8843 45.9522 35.8843C46.3478 35.8843 46.6779 35.7801 46.9425 35.5716C47.2098 35.3604 47.4102 35.0771 47.5439 34.7216C47.6802 34.3635 47.7483 33.9652 47.7483 33.5269C47.7483 33.0939 47.6815 32.7037 47.5479 32.3562C47.4169 32.0061 47.2178 31.7295 46.9505 31.5263C46.6859 31.3205 46.3531 31.2176 45.9522 31.2176C45.5673 31.2176 45.2439 31.3152 44.982 31.5103C44.7201 31.7027 44.5223 31.9727 44.3886 32.3201C44.255 32.6649 44.1882 33.0672 44.1882 33.5269ZM58.4719 30.961H57.4777C57.4189 30.675 57.316 30.4238 57.169 30.2073C57.0246 29.9908 56.8482 29.8091 56.6397 29.662C56.4339 29.5124 56.2054 29.4001 55.9542 29.3253C55.7029 29.2504 55.441 29.213 55.1684 29.213C54.6712 29.213 54.2209 29.3386 53.8173 29.5899C53.4164 29.8411 53.097 30.2113 52.8591 30.7004C52.6239 31.1895 52.5063 31.7896 52.5063 32.5006C52.5063 33.2115 52.6239 33.8116 52.8591 34.3007C53.097 34.7898 53.4164 35.16 53.8173 35.4112C54.2209 35.6625 54.6712 35.7881 55.1684 35.7881C55.441 35.7881 55.7029 35.7507 55.9542 35.6758C56.2054 35.601 56.4339 35.4901 56.6397 35.3431C56.8482 35.1934 57.0246 35.0103 57.169 34.7938C57.316 34.5746 57.4189 34.3234 57.4777 34.0401H58.4719C58.3971 34.4597 58.2608 34.8352 58.063 35.1667C57.8652 35.4981 57.6193 35.7801 57.3253 36.0126C57.0313 36.2425 56.7012 36.4175 56.335 36.5378C55.9715 36.6581 55.5827 36.7182 55.1684 36.7182C54.4681 36.7182 53.8453 36.5472 53.3001 36.205C52.7548 35.8629 52.3259 35.3765 52.0131 34.7457C51.7004 34.1149 51.5441 33.3665 51.5441 32.5006C51.5441 31.6346 51.7004 30.8862 52.0131 30.2554C52.3259 29.6246 52.7548 29.1382 53.3001 28.7961C53.8453 28.4539 54.4681 28.2829 55.1684 28.2829C55.5827 28.2829 55.9715 28.343 56.335 28.4633C56.7012 28.5836 57.0313 28.76 57.3253 28.9925C57.6193 29.2224 57.8652 29.503 58.063 29.8344C58.2608 30.1632 58.3971 30.5387 58.4719 30.961ZM61.6618 36.7343C61.0844 36.7343 60.5873 36.5979 60.1704 36.3253C59.7534 36.0527 59.4327 35.6772 59.2081 35.1987C58.9836 34.7203 58.8714 34.1737 58.8714 33.559C58.8714 32.9335 58.9863 32.3816 59.2162 31.9032C59.4487 31.4221 59.7721 31.0466 60.1864 30.7766C60.6033 30.504 61.0898 30.3677 61.6457 30.3677C62.0787 30.3677 62.469 30.4478 62.8164 30.6082C63.1639 30.7686 63.4485 30.9931 63.6704 31.2818C63.8922 31.5704 64.0299 31.9072 64.0833 32.2921H63.1371C63.065 32.0114 62.9046 31.7629 62.656 31.5464C62.4101 31.3272 62.0787 31.2176 61.6618 31.2176C61.2929 31.2176 60.9695 31.3138 60.6915 31.5063C60.4162 31.696 60.2011 31.9647 60.0461 32.3121C59.8937 32.6569 59.8175 33.0618 59.8175 33.5269C59.8175 34.0027 59.8924 34.4169 60.0421 34.7697C60.1944 35.1226 60.4082 35.3965 60.6835 35.5916C60.9615 35.7867 61.2876 35.8843 61.6618 35.8843C61.9077 35.8843 62.1308 35.8415 62.3313 35.756C62.5318 35.6705 62.7015 35.5475 62.8405 35.3872C62.9795 35.2268 63.0783 35.0344 63.1371 34.8098H64.0833C64.0299 35.1733 63.8976 35.5008 63.6864 35.7921C63.4779 36.0808 63.2013 36.3106 62.8565 36.4817C62.5144 36.6501 62.1161 36.7343 61.6618 36.7343ZM69.7233 36.606H67.1895V28.3951H69.8355C70.632 28.3951 71.3136 28.5595 71.8802 28.8883C72.4469 29.2144 72.8812 29.6834 73.1832 30.2955C73.4852 30.9049 73.6362 31.6346 73.6362 32.4845C73.6362 33.3398 73.4839 34.0762 73.1792 34.6936C72.8745 35.3083 72.4308 35.7814 71.8482 36.1128C71.2655 36.4416 70.5572 36.606 69.7233 36.606ZM68.1838 35.7239H69.6591C70.338 35.7239 70.9006 35.593 71.347 35.331C71.7934 35.0691 72.1261 34.6962 72.3453 34.2125C72.5645 33.7287 72.674 33.1527 72.674 32.4845C72.674 31.8217 72.5658 31.251 72.3493 30.7726C72.1328 30.2915 71.8094 29.9226 71.3791 29.6661C70.9488 29.4068 70.4129 29.2772 69.7714 29.2772H68.1838V35.7239ZM76.7108 36.7343C76.1976 36.7343 75.7446 36.6046 75.3517 36.3454C74.9588 36.0834 74.6514 35.7146 74.4296 35.2388C74.2077 34.7604 74.0968 34.1951 74.0968 33.5429C74.0968 32.8961 74.2077 32.3348 74.4296 31.8591C74.6514 31.3833 74.9601 31.0158 75.3557 30.7566C75.7513 30.4973 76.2083 30.3677 76.7268 30.3677C77.1278 30.3677 77.4445 30.4345 77.677 30.5681C77.9122 30.6991 78.0913 30.8488 78.2143 31.0172C78.3399 31.1829 78.4374 31.3192 78.5069 31.4261H78.5871V28.3951H79.5333V36.606H78.6192V35.6598H78.5069C78.4374 35.772 78.3385 35.9137 78.2102 36.0848C78.082 36.2531 77.8989 36.4042 77.661 36.5378C77.4231 36.6688 77.1064 36.7343 76.7108 36.7343ZM76.8391 35.8843C77.2186 35.8843 77.5394 35.7854 77.8013 35.5876C78.0632 35.3872 78.2624 35.1105 78.3987 34.7577C78.535 34.4022 78.6031 33.992 78.6031 33.5269C78.6031 33.0672 78.5363 32.6649 78.4027 32.3201C78.269 31.9727 78.0713 31.7027 77.8093 31.5103C77.5474 31.3152 77.224 31.2176 76.8391 31.2176C76.4382 31.2176 76.1041 31.3205 75.8368 31.5263C75.5722 31.7295 75.3731 32.0061 75.2394 32.3562C75.1085 32.7037 75.043 33.0939 75.043 33.5269C75.043 33.9652 75.1098 34.3635 75.2434 34.7216C75.3798 35.0771 75.5802 35.3604 75.8448 35.5716C76.1121 35.7801 76.4435 35.8843 76.8391 35.8843ZM83.1205 36.606V28.3951H88.0759V29.2772H84.1148V32.0515H87.8193V32.9335H84.1148V35.7239H88.14V36.606H83.1205ZM91.5313 36.7343C90.938 36.7343 90.4261 36.6033 89.9958 36.3414C89.5682 36.0767 89.2381 35.7079 89.0055 35.2348C88.7757 34.7591 88.6608 34.2058 88.6608 33.575C88.6608 32.9442 88.7757 32.3883 89.0055 31.9072C89.2381 31.4234 89.5615 31.0466 89.9758 30.7766C90.3927 30.504 90.8792 30.3677 91.4351 30.3677C91.7558 30.3677 92.0726 30.4211 92.3853 30.528C92.698 30.6349 92.9827 30.8087 93.2392 31.0492C93.4958 31.2871 93.7003 31.6025 93.8526 31.9954C94.005 32.3883 94.0812 32.8721 94.0812 33.4467V33.8476H89.3343V33.0298H93.119C93.119 32.6823 93.0495 32.3723 92.9105 32.0996C92.7742 31.827 92.5791 31.6118 92.3251 31.4542C92.0739 31.2965 91.7772 31.2176 91.4351 31.2176C91.0582 31.2176 90.7322 31.3112 90.4569 31.4983C90.1842 31.6827 89.9744 31.9232 89.8274 32.2199C89.6804 32.5166 89.6069 32.8346 89.6069 33.1741V33.7193C89.6069 34.1844 89.6871 34.5786 89.8475 34.9021C90.0105 35.2228 90.2364 35.4673 90.525 35.6357C90.8137 35.8014 91.1491 35.8843 91.5313 35.8843C91.7799 35.8843 92.0044 35.8496 92.2049 35.7801C92.408 35.7079 92.5831 35.601 92.7301 35.4593C92.8771 35.315 92.9907 35.1359 93.0709 34.9221L93.9849 35.1787C93.8887 35.4887 93.727 35.7614 93.4998 35.9966C93.2727 36.2291 92.992 36.4108 92.6579 36.5418C92.3238 36.6701 91.9483 36.7343 91.5313 36.7343ZM21.91 50.606V42.3951H26.8333V43.2772H22.9043V46.0515H26.4645V46.9335H22.9043V50.606H21.91ZM30.3599 44.4478V45.2497H27.0403V44.4478H30.3599ZM28.0346 50.606V43.5979C28.0346 43.2451 28.1175 42.9511 28.2832 42.7159C28.4489 42.4807 28.664 42.3043 28.9287 42.1867C29.1933 42.0691 29.4726 42.0103 29.7666 42.0103C29.9991 42.0103 30.1889 42.029 30.3359 42.0664C30.4829 42.1038 30.5925 42.1386 30.6646 42.1706L30.392 42.9885C30.3439 42.9725 30.2771 42.9524 30.1915 42.9284C30.1087 42.9043 29.9991 42.8923 29.8628 42.8923C29.5501 42.8923 29.3242 42.9711 29.1852 43.1288C29.0489 43.2865 28.9808 43.5177 28.9808 43.8224V50.606H28.0346ZM39.0218 44.961C38.9336 44.6911 38.8173 44.4492 38.673 44.2354C38.5314 44.0189 38.3616 43.8344 38.1639 43.6821C37.9687 43.5297 37.7469 43.4135 37.4983 43.3333C37.2498 43.2531 36.9771 43.213 36.6805 43.213C36.194 43.213 35.7517 43.3386 35.3534 43.5899C34.9552 43.8411 34.6384 44.2113 34.4032 44.7004C34.168 45.1895 34.0504 45.7896 34.0504 46.5006C34.0504 47.2115 34.1694 47.8116 34.4072 48.3007C34.6451 48.7898 34.9672 49.16 35.3735 49.4112C35.7797 49.6625 36.2368 49.7881 36.7446 49.7881C37.215 49.7881 37.6293 49.6879 37.9874 49.4874C38.3483 49.2843 38.6289 48.9983 38.8294 48.6294C39.0325 48.2579 39.1341 47.8209 39.1341 47.3184L39.4388 47.3826H36.9691V46.5006H40.0963V47.3826C40.0963 48.0588 39.9519 48.6468 39.6633 49.1466C39.3773 49.6464 38.9817 50.034 38.4766 50.3093C37.9741 50.5819 37.3968 50.7182 36.7446 50.7182C36.0176 50.7182 35.3788 50.5472 34.8282 50.205C34.2803 49.8629 33.8526 49.3765 33.5453 48.7457C33.2406 48.1149 33.0882 47.3665 33.0882 46.5006C33.0882 45.8511 33.1751 45.2671 33.3488 44.7485C33.5252 44.2273 33.7738 43.7837 34.0945 43.4175C34.4153 43.0513 34.7948 42.7707 35.2331 42.5756C35.6715 42.3804 36.1539 42.2829 36.6805 42.2829C37.1134 42.2829 37.517 42.3484 37.8912 42.4793C38.2681 42.6076 38.6035 42.7907 38.8975 43.0286C39.1942 43.2638 39.4414 43.5458 39.6392 43.8745C39.837 44.2006 39.9733 44.5628 40.0482 44.961H39.0218ZM43.3663 53.0435C42.9092 53.0435 42.5163 52.9847 42.1876 52.8671C41.8588 52.7522 41.5849 52.5999 41.3657 52.4101C41.1492 52.223 40.9768 52.0225 40.8485 51.8087L41.6022 51.2795C41.6878 51.3918 41.796 51.5201 41.927 51.6644C42.058 51.8114 42.237 51.9383 42.4642 52.0453C42.6941 52.1548 42.9948 52.2096 43.3663 52.2096C43.8634 52.2096 44.2737 52.0894 44.5971 51.8488C44.9205 51.6083 45.0822 51.2314 45.0822 50.7182V49.4673H45.002C44.9325 49.5796 44.8337 49.7186 44.7054 49.8843C44.5797 50.0473 44.398 50.193 44.1601 50.3213C43.9249 50.4469 43.6068 50.5097 43.2059 50.5097C42.7088 50.5097 42.2624 50.3921 41.8669 50.1569C41.474 49.9217 41.1626 49.5796 40.9327 49.1306C40.7055 48.6815 40.5919 48.1363 40.5919 47.4948C40.5919 46.8641 40.7029 46.3148 40.9247 45.8471C41.1465 45.3766 41.4552 45.0131 41.8508 44.7566C42.2464 44.4973 42.7034 44.3677 43.222 44.3677C43.6229 44.3677 43.9409 44.4345 44.1761 44.5681C44.414 44.6991 44.5958 44.8488 44.7214 45.0172C44.8497 45.1829 44.9486 45.3192 45.0181 45.4261H45.1143V44.4478H46.0284V50.7824C46.0284 51.3116 45.9081 51.7419 45.6676 52.0733C45.4297 52.4074 45.1089 52.652 44.7054 52.807C44.3044 52.9647 43.8581 53.0435 43.3663 53.0435ZM43.3342 49.6598C43.7138 49.6598 44.0345 49.5729 44.2964 49.3992C44.5584 49.2255 44.7575 48.9756 44.8938 48.6495C45.0301 48.3234 45.0983 47.9332 45.0983 47.4788C45.0983 47.0351 45.0314 46.6435 44.8978 46.3041C44.7642 45.9647 44.5664 45.6987 44.3044 45.5063C44.0425 45.3138 43.7191 45.2176 43.3342 45.2176C42.9333 45.2176 42.5992 45.3192 42.3319 45.5223C42.0673 45.7254 41.8682 45.9981 41.7346 46.3402C41.6036 46.6823 41.5381 47.0618 41.5381 47.4788C41.5381 47.9064 41.6049 48.2846 41.7386 48.6134C41.8749 48.9395 42.0753 49.1961 42.3399 49.3832C42.6072 49.5676 42.9386 49.6598 43.3342 49.6598ZM49.4833 50.606V42.3951H50.4776V46.0515H54.8557V42.3951H55.8499V50.606H54.8557V46.9335H50.4776V50.606H49.4833ZM57.8681 46.9015V50.606H56.9219V42.3951H57.8681V45.4101H57.9483C58.0926 45.092 58.3091 44.8394 58.5977 44.6523C58.8891 44.4625 59.2766 44.3677 59.7604 44.3677C60.18 44.3677 60.5475 44.4519 60.8629 44.6202C61.1783 44.786 61.4229 45.0412 61.5966 45.386C61.773 45.7281 61.8612 46.1638 61.8612 46.693V50.606H60.9151V46.7571C60.9151 46.268 60.7881 45.8898 60.5342 45.6225C60.2829 45.3526 59.9341 45.2176 59.4878 45.2176C59.1777 45.2176 58.8998 45.2831 58.6539 45.4141C58.4107 45.545 58.2182 45.7361 58.0766 45.9874C57.9376 46.2386 57.8681 46.5433 57.8681 46.9015ZM66.3095 42.3951V50.606H65.3152V42.3951H66.3095ZM67.3844 50.606V44.4478H68.3306V50.606H67.3844ZM67.8655 43.4215C67.6811 43.4215 67.5221 43.3587 67.3884 43.2331C67.2575 43.1074 67.192 42.9564 67.192 42.78C67.192 42.6036 67.2575 42.4526 67.3884 42.327C67.5221 42.2014 67.6811 42.1386 67.8655 42.1386C68.05 42.1386 68.2077 42.2014 68.3386 42.327C68.4723 42.4526 68.5391 42.6036 68.5391 42.78C68.5391 42.9564 68.4723 43.1074 68.3386 43.2331C68.2077 43.3587 68.05 43.4215 67.8655 43.4215ZM74.9298 42.3951H75.924V48.2646C75.924 48.7885 75.8278 49.2335 75.6354 49.5997C75.4429 49.9658 75.1717 50.2438 74.8215 50.4336C74.4714 50.6233 74.0584 50.7182 73.5827 50.7182C73.1337 50.7182 72.7341 50.6367 72.3839 50.4737C72.0338 50.3079 71.7585 50.0727 71.558 49.768C71.3576 49.4633 71.2574 49.1012 71.2574 48.6815H72.2356C72.2356 48.9141 72.2931 49.1172 72.408 49.2909C72.5256 49.462 72.686 49.5956 72.8891 49.6919C73.0922 49.7881 73.3234 49.8362 73.5827 49.8362C73.8687 49.8362 74.1119 49.7761 74.3124 49.6558C74.5128 49.5355 74.6652 49.3591 74.7694 49.1266C74.8763 48.8914 74.9298 48.604 74.9298 48.2646V42.3951ZM76.998 44.4478H77.9442V51.055C77.9442 51.4345 77.8787 51.7633 77.7477 52.0412C77.6195 52.3192 77.4243 52.5344 77.1624 52.6867C76.9031 52.8391 76.5757 52.9152 76.1802 52.9152C76.1481 52.9152 76.116 52.9152 76.0839 52.9152C76.0519 52.9152 76.0198 52.9152 75.9877 52.9152V52.0332C76.0198 52.0332 76.0492 52.0332 76.0759 52.0332C76.1026 52.0332 76.132 52.0332 76.1641 52.0332C76.4528 52.0332 76.6639 51.9477 76.7976 51.7766C76.9312 51.6083 76.998 51.3677 76.998 51.055V44.4478ZM77.4631 43.4215C77.2787 43.4215 77.1196 43.3587 76.986 43.2331C76.855 43.1074 76.7896 42.9564 76.7896 42.78C76.7896 42.6036 76.855 42.4526 76.986 42.327C77.1196 42.2014 77.2787 42.1386 77.4631 42.1386C77.6475 42.1386 77.8052 42.2014 77.9362 42.327C78.0698 42.4526 78.1366 42.6036 78.1366 42.78C78.1366 42.9564 78.0698 43.1074 77.9362 43.2331C77.8052 43.3587 77.6475 43.4215 77.4631 43.4215ZM81.4002 50.606V42.3951H82.3944V46.4685H82.4907L86.1791 42.3951H87.4781L84.0302 46.0996L87.4781 50.606H86.2753L83.4208 46.7892L82.3944 47.9439V50.606H81.4002ZM88.7285 48.3608L88.7124 47.1901H88.9049L91.599 44.4478H92.7697L89.8991 47.3505H89.819L88.7285 48.3608ZM87.8464 50.606V42.3951H88.7926V50.606H87.8464ZM91.7594 50.606L89.3539 47.559L90.0274 46.9015L92.9622 50.606H91.7594ZM21.91 64.606V56.3951H22.9043V63.7239H26.7211V64.606H21.91ZM28.2882 56.3951V64.606H27.342V56.3951H28.2882ZM31.7441 56.3951H32.9309L35.7213 63.2108H35.8175L38.6079 56.3951H39.7946V64.606H38.8645V58.3677H38.7843L36.2184 64.606H35.3203L32.7545 58.3677H32.6743V64.606H31.7441V56.3951ZM40.8696 64.606V58.4478H41.7837V59.4101H41.8638C41.9921 59.0813 42.1993 58.826 42.4853 58.6443C42.7713 58.4599 43.1147 58.3677 43.5156 58.3677C43.9219 58.3677 44.26 58.4599 44.53 58.6443C44.8026 58.826 45.0151 59.0813 45.1674 59.4101H45.2316C45.3893 59.092 45.6258 58.8394 45.9412 58.6523C46.2566 58.4625 46.6348 58.3677 47.0758 58.3677C47.6264 58.3677 48.0767 58.5401 48.4269 58.8848C48.777 59.227 48.9521 59.7602 48.9521 60.4845V64.606H48.0059V60.4845C48.0059 60.0301 47.8816 59.7054 47.6331 59.5103C47.3845 59.3152 47.0918 59.2176 46.7551 59.2176C46.3221 59.2176 45.9866 59.3486 45.7487 59.6105C45.5109 59.8698 45.3919 60.1985 45.3919 60.5968V64.606H44.4297V60.3883C44.4297 60.0382 44.3161 59.7562 44.0889 59.5424C43.8618 59.3259 43.5691 59.2176 43.2109 59.2176C42.965 59.2176 42.7352 59.2831 42.5214 59.4141C42.3102 59.545 42.1391 59.7268 42.0082 59.9593C41.8799 60.1892 41.8157 60.4551 41.8157 60.7571V64.606H40.8696ZM58.916 56.3951V64.606H57.9538L53.4795 58.1592H53.3993V64.606H52.405V56.3951H53.3672L57.8575 62.858H57.9377V56.3951H58.916ZM60.9331 60.9015V64.606H59.9869V58.4478H60.901V59.4101H60.9812C61.1255 59.0973 61.3447 58.8461 61.6387 58.6563C61.9327 58.4639 62.3123 58.3677 62.7773 58.3677C63.1943 58.3677 63.5591 58.4532 63.8718 58.6243C64.1846 58.7926 64.4278 59.0492 64.6015 59.394C64.7752 59.7361 64.8621 60.1691 64.8621 60.693V64.606H63.9159V60.7571C63.9159 60.2734 63.7903 59.8965 63.5391 59.6265C63.2878 59.3539 62.943 59.2176 62.5047 59.2176C62.2027 59.2176 61.9327 59.2831 61.6948 59.4141C61.4596 59.545 61.2739 59.7361 61.1376 59.9874C61.0013 60.2386 60.9331 60.5433 60.9331 60.9015ZM75.2419 60.5006C75.2419 61.3665 75.0856 62.1149 74.7729 62.7457C74.4601 63.3765 74.0312 63.8629 73.4859 64.205C72.9407 64.5472 72.3179 64.7182 71.6176 64.7182C70.9174 64.7182 70.2946 64.5472 69.7493 64.205C69.2041 63.8629 68.7751 63.3765 68.4624 62.7457C68.1497 62.1149 67.9933 61.3665 67.9933 60.5006C67.9933 59.6346 68.1497 58.8862 68.4624 58.2554C68.7751 57.6246 69.2041 57.1382 69.7493 56.7961C70.2946 56.4539 70.9174 56.2829 71.6176 56.2829C72.3179 56.2829 72.9407 56.4539 73.4859 56.7961C74.0312 57.1382 74.4601 57.6246 74.7729 58.2554C75.0856 58.8862 75.2419 59.6346 75.2419 60.5006ZM74.2797 60.5006C74.2797 59.7896 74.1608 59.1895 73.9229 58.7004C73.6877 58.2113 73.3683 57.8411 72.9647 57.5899C72.5638 57.3386 72.1148 57.213 71.6176 57.213C71.1205 57.213 70.6701 57.3386 70.2665 57.5899C69.8656 57.8411 69.5462 58.2113 69.3083 58.7004C69.0731 59.1895 68.9555 59.7896 68.9555 60.5006C68.9555 61.2115 69.0731 61.8116 69.3083 62.3007C69.5462 62.7898 69.8656 63.16 70.2665 63.4112C70.6701 63.6625 71.1205 63.7881 71.6176 63.7881C72.1148 63.7881 72.5638 63.6625 72.9647 63.4112C73.3683 63.16 73.6877 62.7898 73.9229 62.3007C74.1608 61.8116 74.2797 61.2115 74.2797 60.5006ZM78.4969 64.7343C77.941 64.7343 77.4532 64.6019 77.0335 64.3373C76.6166 64.0727 76.2905 63.7026 76.0553 63.2268C75.8228 62.751 75.7065 62.1951 75.7065 61.559C75.7065 60.9175 75.8228 60.3576 76.0553 59.8791C76.2905 59.4007 76.6166 59.0292 77.0335 58.7646C77.4532 58.5 77.941 58.3677 78.4969 58.3677C79.0528 58.3677 79.5393 58.5 79.9562 58.7646C80.3759 59.0292 80.702 59.4007 80.9345 59.8791C81.1697 60.3576 81.2873 60.9175 81.2873 61.559C81.2873 62.1951 81.1697 62.751 80.9345 63.2268C80.702 63.7026 80.3759 64.0727 79.9562 64.3373C79.5393 64.6019 79.0528 64.7343 78.4969 64.7343ZM78.4969 63.8843C78.9192 63.8843 79.2667 63.7761 79.5393 63.5596C79.8119 63.3431 80.0137 63.0584 80.1447 62.7056C80.2756 62.3528 80.3411 61.9706 80.3411 61.559C80.3411 61.1474 80.2756 60.7638 80.1447 60.4083C80.0137 60.0529 79.8119 59.7655 79.5393 59.5464C79.2667 59.3272 78.9192 59.2176 78.4969 59.2176C78.0746 59.2176 77.7271 59.3272 77.4545 59.5464C77.1819 59.7655 76.9801 60.0529 76.8491 60.4083C76.7182 60.7638 76.6527 61.1474 76.6527 61.559C76.6527 61.9706 76.7182 62.3528 76.8491 62.7056C76.9801 63.0584 77.1819 63.3431 77.4545 63.5596C77.7271 63.7761 78.0746 63.8843 78.4969 63.8843ZM84.4546 64.606V56.3951H87.229C87.8731 56.3951 88.3996 56.5114 88.8086 56.7439C89.2202 56.9738 89.5249 57.2852 89.7227 57.6781C89.9205 58.071 90.0193 58.5093 90.0193 58.9931C90.0193 59.4769 89.9205 59.9165 89.7227 60.3121C89.5276 60.7077 89.2255 61.0231 88.8166 61.2583C88.4077 61.4908 87.8838 61.6071 87.245 61.6071H85.2564V60.7251H87.2129C87.6539 60.7251 88.0081 60.6489 88.2753 60.4965C88.5426 60.3442 88.7364 60.1384 88.8567 59.8791C88.9796 59.6172 89.0411 59.3218 89.0411 58.9931C89.0411 58.6643 88.9796 58.3703 88.8567 58.1111C88.7364 57.8518 88.5413 57.6487 88.2713 57.5017C88.0014 57.352 87.6432 57.2772 87.1969 57.2772H85.4489V64.606H84.4546ZM90.7024 66.9152V58.4478H91.6165V59.4261H91.7288C91.7983 59.3192 91.8945 59.1829 92.0174 59.0172C92.1431 58.8488 92.3221 58.6991 92.5547 58.5681C92.7899 58.4345 93.1079 58.3677 93.5089 58.3677C94.0274 58.3677 94.4844 58.4973 94.88 58.7566C95.2756 59.0158 95.5843 59.3833 95.8061 59.8591C96.028 60.3348 96.1389 60.8961 96.1389 61.5429C96.1389 62.1951 96.028 62.7604 95.8061 63.2388C95.5843 63.7146 95.2769 64.0834 94.884 64.3454C94.4911 64.6046 94.0381 64.7343 93.5249 64.7343C93.1293 64.7343 92.8126 64.6688 92.5747 64.5378C92.3368 64.4042 92.1538 64.2531 92.0255 64.0848C91.8972 63.9137 91.7983 63.772 91.7288 63.6598H91.6486V66.9152H90.7024ZM91.6326 61.5269C91.6326 61.992 91.7007 62.4022 91.837 62.7577C91.9733 63.1105 92.1725 63.3872 92.4344 63.5876C92.6963 63.7854 93.0171 63.8843 93.3966 63.8843C93.7922 63.8843 94.1223 63.7801 94.3869 63.5716C94.6541 63.3604 94.8546 63.0771 94.9882 62.7216C95.1246 62.3635 95.1927 61.9652 95.1927 61.5269C95.1927 61.0939 95.1259 60.7037 94.9923 60.3562C94.8613 60.0061 94.6622 59.7295 94.3949 59.5263C94.1303 59.3205 93.7975 59.2176 93.3966 59.2176C93.0117 59.2176 92.6883 59.3152 92.4264 59.5103C92.1644 59.7027 91.9667 59.9727 91.833 60.3201C91.6994 60.6649 91.6326 61.0672 91.6326 61.5269ZM24.8929 76.0401H25.9834L26.8975 77.2428L27.138 77.5636L28.5012 79.3757H27.4107L26.5126 78.173L26.2881 77.8683L24.8929 76.0401ZM28.8379 74.5006C28.8379 75.3665 28.6816 76.1149 28.3688 76.7457C28.0561 77.3765 27.6271 77.8629 27.0819 78.205C26.5367 78.5472 25.9139 78.7182 25.2136 78.7182C24.5133 78.7182 23.8906 78.5472 23.3453 78.205C22.8001 77.8629 22.3711 77.3765 22.0584 76.7457C21.7457 76.1149 21.5893 75.3665 21.5893 74.5006C21.5893 73.6346 21.7457 72.8862 22.0584 72.2554C22.3711 71.6246 22.8001 71.1382 23.3453 70.7961C23.8906 70.4539 24.5133 70.2829 25.2136 70.2829C25.9139 70.2829 26.5367 70.4539 27.0819 70.7961C27.6271 71.1382 28.0561 71.6246 28.3688 72.2554C28.6816 72.8862 28.8379 73.6346 28.8379 74.5006ZM27.8757 74.5006C27.8757 73.7896 27.7568 73.1895 27.5189 72.7004C27.2837 72.2113 26.9643 71.8411 26.5607 71.5899C26.1598 71.3386 25.7108 71.213 25.2136 71.213C24.7165 71.213 24.2661 71.3386 23.8625 71.5899C23.4616 71.8411 23.1422 72.2113 22.9043 72.7004C22.6691 73.1895 22.5515 73.7896 22.5515 74.5006C22.5515 75.2115 22.6691 75.8116 22.9043 76.3007C23.1422 76.7898 23.4616 77.16 23.8625 77.4112C24.2661 77.6625 24.7165 77.7881 25.2136 77.7881C25.7108 77.7881 26.1598 77.6625 26.5607 77.4112C26.9643 77.16 27.2837 76.7898 27.5189 76.3007C27.7568 75.8116 27.8757 75.2115 27.8757 74.5006ZM33.7928 80.9152V77.6598H33.7126C33.6431 77.772 33.5442 77.9137 33.4159 78.0848C33.2876 78.2531 33.1046 78.4042 32.8667 78.5378C32.6288 78.6688 32.3121 78.7343 31.9165 78.7343C31.4033 78.7343 30.9503 78.6046 30.5574 78.3454C30.1645 78.0834 29.8571 77.7146 29.6353 77.2388C29.4134 76.7604 29.3025 76.1951 29.3025 75.5429C29.3025 74.8961 29.4134 74.3348 29.6353 73.8591C29.8571 73.3833 30.1658 73.0158 30.5614 72.7566C30.957 72.4973 31.414 72.3677 31.9325 72.3677C32.3335 72.3677 32.6502 72.4345 32.8827 72.5681C33.1179 72.6991 33.297 72.8488 33.4199 73.0172C33.5456 73.1829 33.6431 73.3192 33.7126 73.4261H33.8249V72.4478H34.739V80.9152H33.7928ZM32.0448 77.8843C32.4243 77.8843 32.7451 77.7854 33.007 77.5876C33.2689 77.3872 33.4681 77.1105 33.6044 76.7577C33.7407 76.4022 33.8088 75.992 33.8088 75.5269C33.8088 75.0672 33.742 74.6649 33.6084 74.3201C33.4747 73.9727 33.2769 73.7027 33.015 73.5103C32.7531 73.3152 32.4297 73.2176 32.0448 73.2176C31.6439 73.2176 31.3098 73.3205 31.0425 73.5263C30.7779 73.7295 30.5788 74.0061 30.4451 74.3562C30.3142 74.7037 30.2487 75.0939 30.2487 75.5269C30.2487 75.9652 30.3155 76.3635 30.4491 76.7216C30.5854 77.0771 30.7859 77.3604 31.0505 77.5716C31.3178 77.7801 31.6492 77.8843 32.0448 77.8843ZM38.1939 78.606V70.3951H40.9683C41.6097 70.3951 42.1363 70.5047 42.5479 70.7239C42.9595 70.9404 43.2642 71.2384 43.462 71.6179C43.6598 71.9975 43.7587 72.4291 43.7587 72.9129C43.7587 73.3967 43.6598 73.8257 43.462 74.1999C43.2642 74.5741 42.9608 74.8681 42.5519 75.0819C42.143 75.293 41.6204 75.3986 40.9843 75.3986H38.7392V74.5006H40.9522C41.3906 74.5006 41.7434 74.4364 42.0107 74.3081C42.2806 74.1798 42.4757 73.9981 42.596 73.7629C42.719 73.525 42.7804 73.2417 42.7804 72.9129C42.7804 72.5842 42.719 72.2968 42.596 72.0509C42.4731 71.805 42.2766 71.6153 42.0067 71.4816C41.7367 71.3453 41.3799 71.2772 40.9362 71.2772H39.1882V78.606H38.1939ZM42.0588 74.9175L44.0794 78.606H42.9248L40.9362 74.9175H42.0588ZM44.4969 78.606V72.4478H45.411V73.378H45.4751C45.5874 73.0733 45.7905 72.826 46.0845 72.6363C46.3785 72.4465 46.71 72.3516 47.0788 72.3516C47.1483 72.3516 47.2352 72.353 47.3394 72.3556C47.4436 72.3583 47.5225 72.3623 47.5759 72.3677V73.3299C47.5439 73.3218 47.4704 73.3098 47.3554 73.2938C47.2432 73.2751 47.1242 73.2657 46.9986 73.2657C46.6993 73.2657 46.432 73.3285 46.1968 73.4542C45.9642 73.5771 45.7798 73.7482 45.6435 73.9673C45.5099 74.1838 45.443 74.4311 45.443 74.709V78.606H44.4969ZM54.9108 72.4478C54.8627 72.0416 54.6676 71.7262 54.3254 71.5017C53.9833 71.2772 53.5637 71.1649 53.0666 71.1649C52.7031 71.1649 52.385 71.2237 52.1124 71.3413C51.8424 71.4589 51.6313 71.6206 51.4789 71.8264C51.3292 72.0322 51.2544 72.2661 51.2544 72.528C51.2544 72.7472 51.3065 72.9356 51.4108 73.0933C51.5177 73.2483 51.654 73.378 51.8197 73.4822C51.9854 73.5838 52.1591 73.668 52.3409 73.7348C52.5226 73.7989 52.6897 73.8511 52.842 73.8912L53.676 74.1157C53.8898 74.1718 54.1277 74.2493 54.3896 74.3482C54.6542 74.4471 54.9068 74.5821 55.1473 74.7531C55.3905 74.9215 55.591 75.138 55.7487 75.4026C55.9064 75.6672 55.9852 75.992 55.9852 76.3768C55.9852 76.8205 55.869 77.2215 55.6364 77.5796C55.4066 77.9378 55.0698 78.2224 54.6261 78.4336C54.1851 78.6447 53.6492 78.7503 53.0184 78.7503C52.4304 78.7503 51.9213 78.6554 51.4909 78.4656C51.0633 78.2759 50.7265 78.0113 50.4806 77.6718C50.2374 77.3324 50.0998 76.9381 50.0677 76.4891H51.094C51.1208 76.7992 51.225 77.0557 51.4068 77.2589C51.5912 77.4593 51.8237 77.609 52.1044 77.7079C52.3877 77.8041 52.6924 77.8522 53.0184 77.8522C53.398 77.8522 53.7388 77.7908 54.0408 77.6678C54.3428 77.5422 54.582 77.3685 54.7584 77.1466C54.9348 76.9221 55.023 76.6602 55.023 76.3608C55.023 76.0882 54.9469 75.8663 54.7945 75.6953C54.6422 75.5242 54.4417 75.3852 54.1931 75.2783C53.9446 75.1714 53.676 75.0779 53.3873 74.9977L52.377 74.709C51.7355 74.5246 51.2277 74.2613 50.8535 73.9192C50.4793 73.5771 50.2922 73.1294 50.2922 72.5761C50.2922 72.1164 50.4165 71.7155 50.6651 71.3734C50.9163 71.0286 51.2531 70.7613 51.6754 70.5715C52.1003 70.3791 52.5748 70.2829 53.0986 70.2829C53.6278 70.2829 54.0983 70.3778 54.5099 70.5675C54.9215 70.7546 55.2476 71.0112 55.4881 71.3373C55.7313 71.6634 55.8596 72.0336 55.873 72.4478H54.9108ZM61.0634 73.827L60.2134 74.0676C60.16 73.9259 60.0811 73.7883 59.9769 73.6546C59.8753 73.5183 59.7364 73.406 59.56 73.3178C59.3835 73.2296 59.1577 73.1855 58.8824 73.1855C58.5055 73.1855 58.1915 73.2724 57.9402 73.4461C57.6917 73.6172 57.5674 73.835 57.5674 74.0996C57.5674 74.3348 57.6529 74.5206 57.824 74.6569C57.995 74.7932 58.2623 74.9068 58.6258 74.9977L59.5399 75.2222C60.0905 75.3558 60.5008 75.5603 60.7707 75.8356C61.0407 76.1082 61.1757 76.4597 61.1757 76.89C61.1757 77.2428 61.0741 77.5582 60.871 77.8362C60.6705 78.1142 60.3899 78.3333 60.029 78.4937C59.6682 78.6541 59.2486 78.7343 58.7701 78.7343C58.142 78.7343 57.6222 78.5979 57.2106 78.3253C56.799 78.0527 56.5384 77.6544 56.4288 77.1306L57.3268 76.9061C57.4124 77.2375 57.5741 77.4861 57.8119 77.6518C58.0525 77.8175 58.3666 77.9003 58.7541 77.9003C59.1951 77.9003 59.5453 77.8068 59.8045 77.6197C60.0664 77.4299 60.1974 77.2027 60.1974 76.9381C60.1974 76.7243 60.1226 76.5452 59.9729 76.4009C59.8232 76.2539 59.5934 76.1443 59.2833 76.0722L58.257 75.8316C57.693 75.698 57.2787 75.4908 57.0141 75.2102C56.7522 74.9269 56.6212 74.5727 56.6212 74.1477C56.6212 73.8003 56.7188 73.4929 56.9139 73.2256C57.1117 72.9584 57.3803 72.7485 57.7197 72.5962C58.0619 72.4438 58.4494 72.3677 58.8824 72.3677C59.4918 72.3677 59.9702 72.5013 60.3177 72.7686C60.6678 73.0359 60.9164 73.3887 61.0634 73.827ZM63.8739 71.2772V70.3951H70.032V71.2772H67.4501V78.606H66.4558V71.2772H63.8739ZM73.3261 72.4478V73.2497H70.1347V72.4478H73.3261ZM71.0649 70.9725H72.011V76.8419C72.011 77.1092 72.0498 77.3097 72.1273 77.4433C72.2075 77.5743 72.3091 77.6625 72.432 77.7079C72.5576 77.7507 72.6899 77.772 72.8289 77.772C72.9332 77.772 73.0187 77.7667 73.0855 77.756C73.1523 77.7426 73.2058 77.732 73.2459 77.7239L73.4383 78.5739C73.3742 78.5979 73.2846 78.622 73.1697 78.646C73.0548 78.6728 72.9091 78.6861 72.7327 78.6861C72.4654 78.6861 72.2035 78.6287 71.9469 78.5137C71.693 78.3988 71.4818 78.2237 71.3134 77.9885C71.1477 77.7533 71.0649 77.4567 71.0649 77.0985V70.9725ZM81.8607 70.3951H82.8549V75.8316C82.8549 76.3929 82.7226 76.894 82.458 77.335C82.1961 77.7734 81.8259 78.1195 81.3475 78.3734C80.869 78.6247 80.3078 78.7503 79.6636 78.7503C79.0195 78.7503 78.4582 78.6247 77.9798 78.3734C77.5013 78.1195 77.1298 77.7734 76.8652 77.335C76.6033 76.894 76.4723 76.3929 76.4723 75.8316V70.3951H77.4666V75.7514C77.4666 76.1523 77.5548 76.5092 77.7312 76.8219C77.9076 77.1319 78.1588 77.3765 78.4849 77.5556C78.8137 77.732 79.2066 77.8202 79.6636 77.8202C80.1207 77.8202 80.5136 77.732 80.8423 77.5556C81.1711 77.3765 81.4223 77.1319 81.596 76.8219C81.7724 76.5092 81.8607 76.1523 81.8607 75.7514V70.3951ZM87.8028 76.0882V72.4478H88.749V78.606H87.8028V77.5636H87.7386C87.5943 77.8763 87.3698 78.1422 87.0651 78.3614C86.7604 78.5779 86.3755 78.6861 85.9104 78.6861C85.5256 78.6861 85.1834 78.6019 84.8841 78.4336C84.5847 78.2625 84.3495 78.0059 84.1785 77.6638C84.0074 77.319 83.9219 76.8847 83.9219 76.3608V72.4478H84.8681V76.2967C84.8681 76.7457 84.9937 77.1038 85.2449 77.3711C85.4988 77.6384 85.8222 77.772 86.2151 77.772C86.4504 77.772 86.6896 77.7119 86.9328 77.5916C87.1787 77.4714 87.3845 77.2869 87.5502 77.0384C87.7186 76.7898 87.8028 76.4731 87.8028 76.0882ZM22.2468 84.3951L24.6844 91.307H24.7806L27.2182 84.3951H28.2606L25.2457 92.606H24.2193L21.2044 84.3951H22.2468ZM33.6565 86.4478L31.3793 92.606H30.4171L28.1398 86.4478H29.1662L30.8661 91.3551H30.9302L32.6301 86.4478H33.6565ZM38.1197 92.606L35.8746 84.3951H36.8849L38.6009 91.0825H38.681L40.429 84.3951H41.5516L43.2996 91.0825H43.3798L45.0957 84.3951H46.106L43.8609 92.606H42.8346L41.0224 86.063H40.9583L39.1461 92.606H38.1197ZM47.8215 92.606L45.9452 86.4478H46.9395L48.2705 91.1627H48.3347L49.6497 86.4478H50.66L51.959 91.1466H52.0231L53.3542 86.4478H54.3485L52.4722 92.606H51.542L50.1949 87.8751H50.0987L48.7516 92.606H47.8215ZM57.8034 84.3951L59.9203 87.811H59.9844L62.1013 84.3951H63.2719L60.69 88.5006L63.2719 92.606H62.1013L59.9844 89.2543H59.9203L57.8034 92.606H56.6327L59.2788 88.5006L56.6327 84.3951H57.8034ZM64.3529 86.4478L65.8283 88.9656L67.3037 86.4478H68.3942L66.4056 89.5269L68.3942 92.606H67.3037L65.8283 90.2165L64.3529 92.606H63.2624L65.2189 89.5269L63.2624 86.4478H64.3529ZM70.7617 84.3951H71.9003L74.1775 88.2279H74.2737L76.5509 84.3951H77.6895L74.7227 89.2222V92.606H73.7285V89.2222L70.7617 84.3951ZM78.6663 94.9152C78.5059 94.9152 78.3629 94.9019 78.2373 94.8752C78.1117 94.8511 78.0248 94.827 77.9767 94.803L78.2173 93.9691C78.4471 94.0279 78.6503 94.0493 78.8267 94.0332C79.0031 94.0172 79.1594 93.9383 79.2957 93.7967C79.4347 93.6577 79.5617 93.4318 79.6766 93.1191L79.853 92.638L77.5758 86.4478H78.6021L80.302 91.3551H80.3662L82.0661 86.4478H83.0924L80.4784 93.504C80.3608 93.8221 80.2152 94.0853 80.0414 94.2938C79.8677 94.505 79.6659 94.6613 79.4361 94.7629C79.2089 94.8645 78.9523 94.9152 78.6663 94.9152ZM85.7917 92.606V91.8843L90.2178 85.2772H85.7436V84.3951H91.4045V85.1168L86.9784 91.7239H91.4526V92.606H85.7917ZM92.0255 92.606V91.8843L95.5215 87.394V87.3299H92.1377V86.4478H96.7403V87.2016L93.3405 91.6598V91.7239H96.8525V92.606H92.0255Z" fill="white"/>
</svg>
